<?xml version="1.0" encoding="UTF-8" standalone="no"?>

<svg width="48" height="48" viewBox="0 0 48 48" fill="none" xmlns="http://www.w3.org/2000/svg">
<rect width="48" height="48" rx="11.8519" fill="#FF02D1"/>
<g clip-path="url(#clip0_83_291)">
<mask id="mask0_83_291" style="mask-type:luminance" maskUnits="userSpaceOnUse" x="9" y="9" width="30" height="30">
<path d="M38.4 9.6001H9.60001V38.4001H38.4V9.6001Z" fill="white"/>
</mask>
<g mask="url(#mask0_83_291)">
<path d="M24.0363 9.60024C16.14 9.63637 9.76822 16.112 9.80309 24.0648C9.83896 32.0176 16.2695 38.4351 24.1648 38.3999C32.0611 38.3638 38.4329 31.8882 38.398 23.9364C38.3621 15.9826 31.9325 9.56512 24.0363 9.60024ZM22.2259 23.2941C20.814 23.2941 19.6692 22.1421 19.6692 20.7201C19.6692 19.2982 20.814 18.1461 22.2259 18.1461C23.6377 18.1461 24.7816 19.2992 24.7816 20.7201C24.7816 22.1411 23.6367 23.2941 22.2259 23.2941ZM24.2644 26.0768L24.2774 26.0608L24.2913 26.0447C25.0207 26.5184 25.8537 26.686 26.6856 26.7101C27.5186 26.7321 28.3675 26.6689 29.2025 26.4993C30.0364 26.3247 30.8564 26.0668 31.6486 25.7377C32.0929 25.553 32.5353 25.3513 32.9568 25.1145C32.9598 25.1125 32.9618 25.1115 32.9648 25.1095C33.2268 24.9509 33.4829 24.7833 33.734 24.6107C33.7888 24.5716 33.8416 24.5304 33.8934 24.4883L33.8994 24.4953L33.9213 24.5214C33.2786 25.1105 32.5134 25.548 31.7343 25.9343C30.9471 26.3077 30.1261 26.6137 29.2782 26.8345C28.4333 27.0543 27.5515 27.2209 26.6587 27.1386C25.7799 27.0603 24.8543 26.7502 24.2625 26.0779L24.2644 26.0768ZM30.8246 23.2941C30.8236 22.985 31.0707 22.7362 31.3756 22.7332C31.6825 22.7322 31.9296 22.98 31.9325 23.2881C31.9335 23.5962 31.6864 23.8481 31.3816 23.8491C31.0756 23.8501 30.8275 23.6012 30.8246 23.2941ZM26.4455 37.1054C25.8935 33.2088 29.2722 29.3924 31.1773 27.4396C31.6097 26.9971 32.2783 26.387 32.9 25.7387C35.373 23.4095 35.8652 20.6268 30.8036 19.2359C29.8441 18.956 28.8498 18.5596 27.8424 18.1592C27.8105 18.0659 27.7747 17.9775 27.7328 17.8943C27.6172 17.6936 27.415 17.4627 27.1091 17.2008C26.4515 16.6258 25.215 16.6409 24.1479 16.8958C22.9682 16.6158 21.8044 16.5164 20.6855 16.7864C15.7903 18.1451 15.0032 20.5495 14.8129 23.4467C14.5538 26.5776 14.4024 28.9108 13.2256 31.5761C11.757 29.4426 10.8911 26.8546 10.8792 24.0618C10.8463 16.7081 16.7388 10.7202 24.0403 10.687C31.3417 10.6539 37.287 16.5887 37.3199 23.9424C37.3498 30.5104 32.6509 35.9905 26.4445 37.1074L26.4455 37.1054Z" fill="white"/>
<path d="M24.0233 20.7432C24.0233 21.7437 23.2182 22.5535 22.2259 22.5535C21.2335 22.5535 20.4274 21.7437 20.4274 20.7432C20.4274 19.7427 21.2325 18.9329 22.2259 18.9329C23.2192 18.9329 24.0233 19.7427 24.0233 20.7432Z" fill="white"/>
</g>
</g>
<defs>
<clipPath id="clip0_83_291">
<rect width="28.8" height="28.8" fill="white" transform="translate(9.60001 9.6001)"/>
</clipPath>
</defs>
</svg>

