<?xml version="1.0" encoding="UTF-8" standalone="no"?>
<svg
   width="48"
   height="48"
   viewBox="0 0 48 48"
   fill="none"
   version="1.1"
   id="svg1"
   sodipodi:docname="discord.svg"
   inkscape:version="1.4 (1:1.4+202410161351+e7c3feb100)"
   xmlns:inkscape="http://www.inkscape.org/namespaces/inkscape"
   xmlns:sodipodi="http://sodipodi.sourceforge.net/DTD/sodipodi-0.dtd"
   xmlns="http://www.w3.org/2000/svg"
   xmlns:svg="http://www.w3.org/2000/svg">
  <defs
     id="defs1" />
  <sodipodi:namedview
     id="namedview1"
     pagecolor="#505050"
     bordercolor="#eeeeee"
     borderopacity="1"
     inkscape:showpageshadow="0"
     inkscape:pageopacity="0"
     inkscape:pagecheckerboard="0"
     inkscape:deskcolor="#505050"
     inkscape:zoom="18.609765"
     inkscape:cx="5.8034049"
     inkscape:cy="30.467876"
     inkscape:window-width="3440"
     inkscape:window-height="1360"
     inkscape:window-x="0"
     inkscape:window-y="0"
     inkscape:window-maximized="1"
     inkscape:current-layer="svg1" />
  <rect
     width="48"
     height="48"
     rx="11.8519"
     fill="#ff02d1"
     id="rect1"
     x="0"
     y="0"
     ry="11.8519" />
  <path
     d="m 33.996129,15.009005 c -1.8886,-0.8562 -3.8866,-1.464576 -5.9414,-1.809029 -0.256,0.448317 -0.555,1.051289 -0.7612,1.530989 -2.2154,-0.32275 -4.4103,-0.32275 -6.585,0 -0.206,-0.4796 -0.5118,-1.082672 -0.7701,-1.530989 -2.05676,0.34462 -4.05659,0.954539 -5.94621,1.813499 -3.76019,5.50541 -4.7795539,10.87385 -4.2699379,16.16635 2.4940179,1.8045 4.9109679,2.9007 7.2872079,3.617999 0.59053,-0.786899 1.11256,-1.6198 1.56069,-2.490499 -0.85316,-0.3147 -1.67564,-0.7025 -2.45767,-1.158901 0.2058,-0.1477 0.40675,-0.3018 0.60255,-0.4617 4.73867,2.147301 9.88757,2.147301 14.56977,0 0.1969,0.158801 0.3976,0.312801 0.6026,0.4617 -0.7833,0.457601 -1.6073,0.846301 -2.4623,1.161301 0.4508,0.874 0.9719,1.707799 1.5609,2.490299 2.3783,-0.717399 4.7975,-1.813499 7.2916,-3.620199 0.5979,-6.1353 -1.0216,-11.45449 -4.2815,-16.17082 z m -14.7803,12.916021 c -1.42257,0 -2.58919,-1.286701 -2.58919,-2.853501 0,-1.5668 1.14175,-2.85571 2.58919,-2.85571 1.4475,0 2.614,1.28651 2.5892,2.85571 0.0022,1.5668 -1.1417,2.8535 -2.5892,2.853501 z m 9.5682,0 c -1.4225,0 -2.5891,-1.286701 -2.5891,-2.853501 0,-1.5668 1.1418,-2.85571 2.5891,-2.85571 1.4475,0 2.6142,1.28651 2.5891,2.85571 0,1.5668 -1.1416,2.8535 -2.5891,2.853501 z"
     fill="#ffffff"
     id="path1" />
</svg>
