<svg width="151" height="39" viewBox="0 0 151 39" fill="none" xmlns="http://www.w3.org/2000/svg">
<g clip-path="url(#clip0)">
<path d="M41.6362 35.6461V24.8086C41.6362 22.2505 40.6454 20.7933 38.4854 20.7933C36.2559 20.7933 35.194 22.1081 35.194 24.5599V35.6461H29.3184V9.35156H35.194V17.8087C36.043 16.2099 37.9545 15.2505 40.2914 15.2505C44.7864 15.2505 47.5118 18.0928 47.5118 23.2451V35.6461H41.6362Z" fill="#FFB0C2"/>
<path d="M64.2147 18.7983C64.2147 16.8393 62.6327 15.2512 60.6809 15.2512C58.7297 15.2512 57.1474 16.8393 57.1474 18.7983C57.1474 20.7573 58.7297 22.3457 60.6809 22.3457C62.6327 22.3457 64.2147 20.7573 64.2147 18.7983Z" fill="#FFB0C2"/>
<path d="M50.6626 15.9041H56.1845V35.6244H50.6626V15.9041Z" fill="#FFB0C2"/>
<path d="M112.191 35.6339V25.0099C112.191 21.9181 111.201 20.7811 109.182 20.7811C106.953 20.7811 105.926 22.1319 105.926 24.7252V35.6339H100.051V24.7612C100.051 22.2023 99.1299 20.7811 97.1125 20.7811C94.8119 20.7811 93.7852 22.2735 93.7852 25.0099V35.6339H87.9091V15.9135H93.3964V18.0095H93.4665C94.4932 16.1618 96.3694 15.2383 98.8822 15.2383C101.431 15.2383 103.307 16.5171 104.546 18.7559C105.962 16.5171 108.086 15.2383 110.776 15.2383C115.165 15.2383 118.067 17.9388 118.067 23.4464V35.6339H112.191Z" fill="#FFF7F7"/>
<path d="M127.105 15.9041H121.229V35.6244H127.105V15.9041Z" fill="#FFF7F7"/>
<path d="M145.124 35.6339V33.5022H145.053C144.204 35.2435 141.868 36.3094 139.284 36.3094C133.479 36.3094 129.444 31.7252 129.444 25.7558C129.444 19.9283 133.656 15.2383 139.284 15.2383C141.69 15.2383 143.921 16.1977 145.053 18.0095H145.124V15.9135H151V35.6339H145.124ZM145.124 25.7558C145.124 22.9842 142.894 20.7459 140.133 20.7459C137.443 20.7459 135.319 22.9842 135.319 25.827C135.319 28.5627 137.479 30.8017 140.205 30.8017C142.965 30.8017 145.124 28.5987 145.124 25.7558Z" fill="#FFF7F7"/>
<path d="M127.701 11.0249C127.701 9.06587 126.119 7.47773 124.168 7.47773C122.216 7.47773 120.634 9.06587 120.634 11.0249C120.634 12.9839 122.216 14.572 124.168 14.572C126.119 14.572 127.701 12.9839 127.701 11.0249Z" fill="#FFF7F7"/>
<path d="M75.1363 15.3125C69.3692 15.3125 64.6944 20.0055 64.6944 25.7949C64.6944 31.584 69.3692 36.2772 75.1363 36.2772C80.9033 36.2772 85.5785 31.584 85.5785 25.7949C85.5785 20.0055 80.9033 15.3125 75.1363 15.3125ZM75.1363 30.7693C72.3993 30.7693 70.1807 28.5421 70.1807 25.7949C70.1807 23.0473 72.3993 20.8201 75.1363 20.8201C77.8731 20.8201 80.092 23.0473 80.092 25.7949C80.092 28.5421 77.8731 30.7693 75.1363 30.7693Z" fill="#FFB0C2"/>
<path d="M19.6028 25.6748C18.4547 27.8508 16.1794 29.335 13.5555 29.335C9.77762 29.335 6.71508 26.2604 6.71508 22.4677C6.71508 18.6751 9.77762 15.6005 13.5555 15.6005C16.1794 15.6005 18.4547 17.0847 19.6028 19.2607H26.7239C25.2952 13.2822 19.9497 8.83301 13.5555 8.83301C6.06891 8.83301 0 14.9258 0 22.4411C0 29.9568 6.06891 36.049 13.5555 36.049C19.9303 36.049 25.2626 31.6262 26.7104 25.6748H19.6028Z" fill="#FFB0C2"/>
<path d="M24.2727 14.1429C25.8015 12.891 26.7779 10.9846 26.7779 8.84956C26.7779 5.07857 23.7328 2.02173 19.9765 2.02173C16.2199 2.02173 13.1748 5.07857 13.1748 8.84956V8.85473C13.3011 8.85129 13.4275 8.84932 13.5546 8.84932C17.9205 8.84932 21.7975 10.9238 24.2727 14.1429Z" fill="#CC91F0"/>
<path d="M19.9811 15.685C21.6107 15.6847 23.1064 15.1096 24.2776 14.1502C21.8029 10.9313 17.926 8.85718 13.5598 8.85775C13.4328 8.85758 13.3064 8.85953 13.1804 8.86306C13.1826 12.6316 16.2265 15.6853 19.9811 15.685Z" fill="#CC66B8"/>
</g>
<defs>
<clipPath id="clip0">
<rect width="151" height="38.3308" fill="white"/>
</clipPath>
</defs>
</svg>
