<?xml version="1.0" encoding="UTF-8" standalone="no"?>
<svg
   width="206.86678"
   height="1706.2751"
   viewBox="0 0 206.86677 1706.2751"
   fill="none"
   version="1.1"
   id="svg10"
   sodipodi:docname="Roadmap vert.svg"
   inkscape:version="1.3.2 (1:1.3.2+202311252150+091e20ef0f)"
   xmlns:inkscape="http://www.inkscape.org/namespaces/inkscape"
   xmlns:sodipodi="http://sodipodi.sourceforge.net/DTD/sodipodi-0.dtd"
   xmlns:xlink="http://www.w3.org/1999/xlink"
   xmlns="http://www.w3.org/2000/svg"
   xmlns:svg="http://www.w3.org/2000/svg">
  <sodipodi:namedview
     id="namedview10"
     pagecolor="#505050"
     bordercolor="#eeeeee"
     borderopacity="1"
     inkscape:showpageshadow="0"
     inkscape:pageopacity="0"
     inkscape:pagecheckerboard="0"
     inkscape:deskcolor="#505050"
     inkscape:zoom="0.40584983"
     inkscape:cx="291.97992"
     inkscape:cy="995.44209"
     inkscape:window-width="2560"
     inkscape:window-height="1369"
     inkscape:window-x="2560"
     inkscape:window-y="0"
     inkscape:window-maximized="1"
     inkscape:current-layer="svg10" />
  <path
     d="M 206.77754,251.92 C 210.02584,152.708 123.5019,0 123.5019,0 h -10.429 c 0,0 51.69539,119.23824 49.5338,251.31761 C 160.44512,383.39698 58.901075,445.49373 57.777535,558 55.877025,748.30785 165.28104,794.236 157.84654,958.096 c -4.2593,93.874 -66.110005,145.094 -93.855005,234.394 -30.811,99.16 -32.93145,207.7911 -30.811,249.41 5.67086,111.3045 79.892365,264.3751 79.892365,264.3751 h 10.429 C 93.043845,1643.4932 66.826105,1563.9933 63.777535,1441.9 c -2.10043,-84.1207 -3.187,-162.27 38.999995,-249.41 41.17871,-85.07 89.45581,-139.28 98.00001,-234.394 C 215.34093,795.973 77.700535,726.351 89.777535,564 98.983535,440.248 202.71564,375.979 206.77754,251.92 Z"
     fill="url(#paint0_linear_138_3)"
     fill-opacity="0.7"
     id="path1"
     style="fill:url(#linearGradient20)"
     clip-path="none"
     sodipodi:nodetypes="ccczsscsccscccc" />
  <path
     d="M 169.0679,251.92 C 171.6533,152.708 115.3829,0 115.3829,0 H 96.056895 c 0,0 38.773805,152.28 35.985005,251.92 -3.515,125.612 -99.090365,176.268 -107.232365,301.502 -10.626,163.44 104.359505,240.814 98.442005,404.674 -3.39,93.874 -67.652005,150.104 -89.734005,239.404 -24.5220004,99.17 -13.89556,138.9356 -8.708,251 6.77385,146.3321 52.39196,189.7152 71.24736,257.7751 H 115.3829 C 96.751305,1655.8773 64.239995,1593.8317 56.235535,1502.5 c -5.62846,-64.2214 -4.544,-187 16.659,-294.5 18.217,-92.36 83.582705,-154.79 90.383005,-249.904 C 174.86854,795.973 55.710535,717.351 65.322535,555 72.648535,431.248 165.835,375.979 169.0679,251.92 Z"
     fill="url(#paint1_linear_138_3)"
     fill-opacity="0.5"
     id="path2"
     style="fill:url(#linearGradient15)"
     clip-path="none"
     sodipodi:nodetypes="scccsscsccssccs" />
  <path
     d="M 141.9334,252.92 C 144.6913,153.708 103.56789,0 103.56789,0 H 83.567895 c 0,0 41.301005,153.28 38.326005,252.92 -3.749,125.612 -105.114365,176.268 -113.7993654,301.502 -11.334,163.44 111.3210054,240.814 105.0090054,404.674 -3.616,93.874 -72.164005,150.104 -95.719005,239.404 -26.1590004,99.17 -17.10269036,153.3895 -9.2900004,251 10.3839304,129.7353 55.5850704,185.0762 75.4733604,256.7751 H 103.56789 C 82.930685,1636.0319 44.578215,1593.0188 34.132535,1506 c -7.57753,-63.1254 -16.748,-222.5 0,-297 20.707,-92.11 88.596005,-154.79 95.850405,-249.904 C 142.34714,796.973 17.559535,716.773 27.813535,554.422 35.628535,430.67 138.4849,376.979 141.9334,252.92 Z"
     fill="url(#paint2_linear_138_3)"
     fill-opacity="0.5"
     id="path3"
     style="fill:url(#linearGradient22)"
     clip-path="none"
     sodipodi:nodetypes="cccccscsccssccc" />
  <defs
     id="defs10">
    <linearGradient
       id="linearGradient46"
       x1="-58"
       y1="99.1325"
       x2="1462.52"
       y2="428.789"
       gradientUnits="userSpaceOnUse">
      <stop
         stop-color="#8EEAFC"
         id="stop45" />
      <stop
         stop-color="#8EEAFC"
         id="stop47"
         style="stop-color:#ff02d1;stop-opacity:1;"
         offset="0.5" />
      <stop
         offset="1"
         stop-color="#FF02D1"
         id="stop46"
         style="stop-color:#8eeafc;stop-opacity:1;" />
    </linearGradient>
    <linearGradient
       id="linearGradient43"
       x1="-57"
       y1="109.155"
       x2="1471.84"
       y2="419.888"
       gradientUnits="userSpaceOnUse">
      <stop
         stop-color="#8EEAFC"
         id="stop42" />
      <stop
         stop-color="#8EEAFC"
         id="stop44"
         style="stop-color:#ff02d1;stop-opacity:1;"
         offset="0.5" />
      <stop
         offset="1"
         stop-color="#FF02D1"
         id="stop43"
         style="stop-color:#8eeafc;stop-opacity:1;" />
    </linearGradient>
    <linearGradient
       id="linearGradient40"
       x1="-58"
       y1="15.9844"
       x2="1378.6"
       y2="233.881"
       gradientUnits="userSpaceOnUse">
      <stop
         stop-color="#FF02D1"
         id="stop39" />
      <stop
         stop-color="#FF02D1"
         id="stop41"
         style="stop-color:#8eeafc;stop-opacity:1;"
         offset="0.59656382" />
      <stop
         offset="1"
         stop-color="#8EEAFC"
         id="stop40"
         style="stop-color:#ff02d1;stop-opacity:1;" />
    </linearGradient>
    <linearGradient
       id="paint0_linear_138_3"
       x1="-58"
       y1="15.9844"
       x2="1378.6"
       y2="233.881"
       gradientUnits="userSpaceOnUse">
      <stop
         stop-color="#FF02D1"
         id="stop4" />
      <stop
         offset="1"
         stop-color="#8EEAFC"
         id="stop5" />
    </linearGradient>
    <linearGradient
       id="paint1_linear_138_3"
       x1="-58"
       y1="99.1325"
       x2="1462.52"
       y2="428.789"
       gradientUnits="userSpaceOnUse">
      <stop
         stop-color="#8EEAFC"
         id="stop6" />
      <stop
         offset="1"
         stop-color="#FF02D1"
         id="stop7" />
    </linearGradient>
    <linearGradient
       id="paint2_linear_138_3"
       x1="-57"
       y1="109.155"
       x2="1471.84"
       y2="419.888"
       gradientUnits="userSpaceOnUse">
      <stop
         stop-color="#8EEAFC"
         id="stop8" />
      <stop
         offset="1"
         stop-color="#FF02D1"
         id="stop9" />
    </linearGradient>
    <clipPath
       id="clip1_138_3">
      <rect
         width="1440"
         height="220"
         fill="#ffffff"
         id="rect10"
         x="0"
         y="0" />
    </clipPath>
    <clipPath
       id="clip0_138_3-3">
      <rect
         width="1440"
         height="220"
         fill="#ffffff"
         id="rect9-6"
         x="0"
         y="0" />
    </clipPath>
    <clipPath
       id="clip1_138_3-7">
      <rect
         width="1440"
         height="220"
         fill="#ffffff"
         id="rect10-5"
         x="0"
         y="0" />
    </clipPath>
    <linearGradient
       inkscape:collect="always"
       xlink:href="#linearGradient40"
       id="linearGradient20"
       gradientUnits="userSpaceOnUse"
       x1="0"
       y1="17.418821"
       x2="1706.2751"
       y2="183.20955"
       spreadMethod="pad"
       gradientTransform="rotate(90,112.13877,112.13877)" />
    <linearGradient
       inkscape:collect="always"
       xlink:href="#linearGradient46"
       id="linearGradient21"
       gradientUnits="userSpaceOnUse"
       x1="0"
       y1="63.913563"
       x2="1706.2751"
       y2="206.26654"
       gradientTransform="rotate(90,112.13877,112.13877)" />
    <linearGradient
       inkscape:collect="always"
       xlink:href="#linearGradient43"
       id="linearGradient22"
       gradientUnits="userSpaceOnUse"
       x1="0"
       y1="82.211372"
       x2="1471.84"
       y2="419.888"
       gradientTransform="rotate(90,112.13877,112.13877)" />
    <clipPath
       clipPathUnits="userSpaceOnUse"
       id="clipPath24">
      <g
         id="g26">
        <g
           id="g25">
          <rect
             width="1440"
             height="220"
             fill="#ffffff"
             id="rect24"
             x="0"
             y="0" />
        </g>
      </g>
    </clipPath>
    <clipPath
       clipPathUnits="userSpaceOnUse"
       id="clipPath26">
      <g
         id="g28">
        <g
           id="g27">
          <rect
             width="1440"
             height="220"
             fill="#ffffff"
             id="rect26"
             x="0"
             y="0" />
        </g>
      </g>
    </clipPath>
    <clipPath
       clipPathUnits="userSpaceOnUse"
       id="clipPath28">
      <g
         id="g30">
        <g
           id="g29">
          <rect
             width="1440"
             height="220"
             fill="#ffffff"
             id="rect28"
             x="0"
             y="0" />
        </g>
      </g>
    </clipPath>
    <linearGradient
       inkscape:collect="always"
       xlink:href="#linearGradient46"
       id="linearGradient15"
       gradientUnits="userSpaceOnUse"
       gradientTransform="rotate(90,112.13877,112.13877)"
       x1="0"
       y1="63.913563"
       x2="1706.2751"
       y2="206.26654" />
  </defs>
  <path
     d="M 169.0679,251.92 C 171.6533,152.708 115.3829,0 115.3829,0 H 96.056895 c 0,0 38.773805,152.28 35.985005,251.92 -3.515,125.612 -99.090365,176.268 -107.232365,301.502 -10.626,163.44 104.359505,240.814 98.442005,404.674 -3.39,93.874 -67.652005,150.104 -89.734005,239.404 -24.5220004,99.17 -13.89556,138.9356 -8.708,251 6.77385,146.3321 52.39196,189.7152 71.24736,257.7751 H 115.3829 C 96.751305,1655.8773 64.239995,1593.8317 56.235535,1502.5 c -5.62846,-64.2214 -4.544,-187 16.659,-294.5 18.217,-92.36 83.582705,-154.79 90.383005,-249.904 C 174.86854,795.973 55.710535,717.351 65.322535,555 72.648535,431.248 165.835,375.979 169.0679,251.92 Z"
     fill="url(#paint1_linear_138_3)"
     fill-opacity="0.5"
     id="path8"
     style="fill:url(#linearGradient21)"
     clip-path="none"
     sodipodi:nodetypes="scccsscsccssccs" />
</svg>
