<?xml version="1.0" encoding="UTF-8" standalone="no"?>
<svg
   width="48"
   height="48"
   viewBox="0 0 48 47.999999"
   fill="none"
   version="1.1"
   id="svg1"
   sodipodi:docname="telegram.svg"
   inkscape:version="1.4 (1:1.4+202410161351+e7c3feb100)"
   xmlns:inkscape="http://www.inkscape.org/namespaces/inkscape"
   xmlns:sodipodi="http://sodipodi.sourceforge.net/DTD/sodipodi-0.dtd"
   xmlns="http://www.w3.org/2000/svg"
   xmlns:svg="http://www.w3.org/2000/svg">
  <defs
     id="defs1" />
  <sodipodi:namedview
     id="namedview1"
     pagecolor="#505050"
     bordercolor="#eeeeee"
     borderopacity="1"
     inkscape:showpageshadow="0"
     inkscape:pageopacity="0"
     inkscape:pagecheckerboard="0"
     inkscape:deskcolor="#505050"
     inkscape:zoom="17.058951"
     inkscape:cx="-9.6723415"
     inkscape:cy="27.023936"
     inkscape:window-width="3440"
     inkscape:window-height="1360"
     inkscape:window-x="0"
     inkscape:window-y="0"
     inkscape:window-maximized="1"
     inkscape:current-layer="svg1" />
  <rect
     width="48"
     height="48"
     rx="11.8519"
     fill="#ff02d1"
     id="rect1"
     x="0"
     y="0"
     ry="11.8519" />
  <path
     fill-rule="evenodd"
     clip-rule="evenodd"
     d="m 38.341933,13.078482 c -0.0233,-0.102099 -0.0742,-0.1965 -0.1478,-0.273599 -0.0735,-0.0771 -0.167,-0.1341 -0.271,-0.1654 -0.3783,-0.0719 -0.7698,-0.0453 -1.1339,0.0772 0,0 -25.2331,8.709899 -26.6742,9.674399 -0.30958,0.2074 -0.41398,0.328401 -0.46557,0.470101 -0.24959,0.6914 0.52677,0.9886 0.52677,0.9886 l 6.5036,2.035 c 0.1099,0.0189 0.223,0.0125 0.33,-0.0185 1.4783,-0.8977 14.8789,-9.026801 15.6577,-9.299901 0.12,-0.0346 0.2124,0 0.1885,0.0864 -0.3097,1.0428 -11.8901,10.921101 -11.9537,10.981101 -0.031,0.0242 -0.0551,0.0557 -0.0702,0.0914 -0.0151,0.0355 -0.0206,0.0742 -0.0162,0.1125 l -0.6071,6.0977 c 0,0 -0.2544,1.8978 1.7218,0 1.4016,-1.347 2.7466,-2.4624 3.4186,-3.005 2.2366,1.4829 4.6424,3.1226 5.6804,3.981 0.1746,0.1622 0.3815,0.2891 0.6082,0.3729 0.2269,0.0837 0.469,0.1226 0.7117,0.1146 0.2991,-0.0352 0.58,-0.1567 0.8052,-0.3488 0.2253,-0.1921 0.3843,-0.4454 0.4559,-0.7264 0,0 4.5957,-17.771201 4.7494,-20.151801 0.0155,-0.2304 0.0359,-0.3825 0.0383,-0.5427 0.0077,-0.1852 -0.0115,-0.3705 -0.0564,-0.5508 z"
     fill="#ffffff"
     id="path1" />
</svg>
