<?xml version="1.0" encoding="UTF-8" standalone="no"?>
<svg
   width="1000px"
   height="1000px"
   viewBox="0 0 1000 1000"
   version="1.1"
   id="svg1"
   xmlns="http://www.w3.org/2000/svg"
   xmlns:svg="http://www.w3.org/2000/svg">
  <path
     id="Oval"
     style="fill-rule:evenodd;stroke:none;stroke-width:1;fill:#ffffff;fill-opacity:1"
     d="M 500 0 A 500 500 0 0 0 0 500 A 500 500 0 0 0 500 1000 A 500 500 0 0 0 1000 500 A 500 500 0 0 0 500 0 z M 704.43164 301.00391 C 708.56783 300.93101 717.81604 301.95544 723.80664 306.81641 C 728.86499 310.9209 730.25588 316.46591 730.92188 320.35742 C 731.58787 324.24894 732.41706 333.11418 731.75781 340.04102 C 724.2332 419.10276 691.67543 610.96511 675.11133 699.51562 C 668.10244 736.98466 654.30211 749.54786 640.94141 750.77734 C 611.9055 753.44927 589.85512 731.58712 561.73242 713.15234 C 517.72597 684.30555 492.86629 666.34836 450.15039 638.19922 C 400.78479 605.66802 432.78661 587.78882 460.91992 558.56836 C 468.28254 550.92123 596.21526 434.55611 598.69141 424 C 599.00109 422.67977 599.2888 417.7587 596.36523 415.16016 C 593.44167 412.56161 589.1255 413.44953 586.01172 414.15625 C 581.59803 415.15799 511.29748 461.62581 375.10938 553.55664 C 355.1547 567.25906 337.08069 573.9358 320.88672 573.58594 C 303.03417 573.20024 268.69318 563.49187 243.16406 555.19336 C 211.85155 545.0149 186.96379 539.63188 189.13086 522.3457 C 190.2596 513.34199 202.65897 504.13509 226.32812 494.72266 C 372.08813 431.21733 469.28564 389.35092 517.91797 369.12305 C 656.77314 311.36837 685.62571 301.33519 704.43164 301.00391 z " />
</svg>
