<?xml version="1.0" encoding="UTF-8" standalone="no"?>
<svg
   width="43.117401"
   height="47.407398"
   viewBox="0 0 43.117401 47.407398"
   fill="none"
   version="1.1"
   id="svg9"
   sodipodi:docname="zerogas.svg"
   inkscape:version="1.4 (1:1.4+202410161351+e7c3feb100)"
   xmlns:inkscape="http://www.inkscape.org/namespaces/inkscape"
   xmlns:sodipodi="http://sodipodi.sourceforge.net/DTD/sodipodi-0.dtd"
   xmlns="http://www.w3.org/2000/svg"
   xmlns:svg="http://www.w3.org/2000/svg">
  <sodipodi:namedview
     id="namedview9"
     pagecolor="#505050"
     bordercolor="#eeeeee"
     borderopacity="1"
     inkscape:showpageshadow="0"
     inkscape:pageopacity="0"
     inkscape:pagecheckerboard="0"
     inkscape:deskcolor="#505050"
     inkscape:zoom="2.3632653"
     inkscape:cx="212.84111"
     inkscape:cy="59.240069"
     inkscape:window-width="3440"
     inkscape:window-height="1360"
     inkscape:window-x="0"
     inkscape:window-y="0"
     inkscape:window-maximized="1"
     inkscape:current-layer="svg9" />
  <g
     clip-path="url(#clip0_83_168)"
     id="g6"
     transform="translate(-50.4259,-48.2963)">
    <path
       d="m 87.1038,57.0271 h -5.8764 v 2.8675 h 4.4427 v 4.1374 c 0,3.0577 2.1433,5.6228 5.0057,6.2764 v 17.0508 c 0,0.9465 -0.77,1.7169 -1.7169,1.7169 -0.9465,0 -1.7169,-0.7704 -1.7169,-1.7169 V 72.634 c 0,-2.5274 -2.0566,-4.584 -4.5845,-4.584 h -1.4301 v 2.8671 h 1.4301 c 0.9469,0 1.7173,0.7704 1.7173,1.7169 v 14.7252 c 0,2.5275 2.0562,4.584 4.5841,4.584 2.5278,0 4.5844,-2.0565 4.5844,-4.584 V 63.4667 c 0,-3.5508 -2.8888,-6.4396 -6.4395,-6.4396 z"
       fill="#ff9ced"
       id="path3" />
    <path
       d="M 58.2406,55.8484 H 70.546 V 64.13 H 58.2406 Z"
       fill="#ff02d1"
       id="path4" />
    <path
       d="m 58.6666,83.3312 c 0,2.7381 2.6584,4.9651 5.926,4.9651 3.2675,0 5.9259,-2.227 5.9259,-4.9651 0,-1.7158 -2.6811,-7.1721 -5.9259,-12.8127 -3.2438,5.6406 -5.926,11.0969 -5.926,12.8127 z"
       fill="#ff02d1"
       id="path5" />
    <path
       d="M 73.8605,48.2963 H 54.9257 c -2.4812,0 -4.4998,2.0186 -4.4998,4.4998 V 94.27 c 0,0.7917 0.642,1.4337 1.4337,1.4337 h 25.067 c 0.7917,0 1.4337,-0.642 1.4337,-1.4337 V 52.7961 c 0,-2.4812 -2.0186,-4.4998 -4.4998,-4.4998 z M 56.8072,66.9971 c -0.7917,0 -1.4337,-0.642 -1.4337,-1.4334 V 54.415 c 0,-0.7917 0.642,-1.4337 1.4337,-1.4337 h 15.1722 c 0.7917,0 1.4337,0.642 1.4337,1.4337 v 11.1487 c 0,0.7914 -0.642,1.4334 -1.4337,1.4334 z m 12.5293,15.3516 c 0,2.726 -2.2175,4.9435 -4.9432,4.9435 -2.7257,0 -4.9432,-2.2175 -4.9432,-4.9435 0,-2.1304 2.815,-7.585 3.6776,-9.2061 0.2489,-0.4677 0.7357,-0.7599 1.2656,-0.7599 0.5299,0 1.0163,0.2922 1.2655,0.7599 0.8627,1.6211 3.6777,7.0757 3.6777,9.2061 z"
       fill="#ff9ced"
       id="path6" />
  </g>
  <defs
     id="defs9">
    <filter
       id="filter0_b_83_168"
       x="-106.82"
       y="-106.82"
       width="624.64001"
       height="458.64001"
       filterUnits="userSpaceOnUse"
       color-interpolation-filters="sRGB">
      <feFlood
         flood-opacity="0"
         result="BackgroundImageFix"
         id="feFlood8" />
      <feGaussianBlur
         in="BackgroundImageFix"
         stdDeviation="53.41"
         id="feGaussianBlur8" />
      <feComposite
         in2="SourceAlpha"
         operator="in"
         result="effect1_backgroundBlur_83_168"
         id="feComposite8" />
      <feBlend
         mode="normal"
         in="SourceGraphic"
         in2="effect1_backgroundBlur_83_168"
         result="shape"
         id="feBlend8" />
    </filter>
    <linearGradient
       id="paint0_linear_83_168"
       x1="-46.641602"
       y1="9.9697999e-08"
       x2="450.638"
       y2="12.6855"
       gradientUnits="userSpaceOnUse">
      <stop
         stop-color="#FF02D1"
         id="stop8" />
      <stop
         offset="1"
         stop-color="#FF02D1"
         stop-opacity="0.2"
         id="stop9" />
    </linearGradient>
    <clipPath
       id="clip0_83_168">
      <rect
         width="47.407398"
         height="47.407398"
         fill="#ffffff"
         transform="translate(48.2963,48.2963)"
         id="rect9"
         x="0"
         y="0" />
    </clipPath>
  </defs>
</svg>
