<?xml version="1.0" encoding="UTF-8" standalone="no"?>
<svg
   width="45.268509"
   height="44.996277"
   viewBox="0 0 45.268509 44.996277"
   fill="none"
   version="1.1"
   id="svg12"
   sodipodi:docname="home/announce.svg"
   inkscape:version="1.4 (1:1.4+202410161351+e7c3feb100)"
   xmlns:inkscape="http://www.inkscape.org/namespaces/inkscape"
   xmlns:sodipodi="http://sodipodi.sourceforge.net/DTD/sodipodi-0.dtd"
   xmlns="http://www.w3.org/2000/svg"
   xmlns:svg="http://www.w3.org/2000/svg">
  <sodipodi:namedview
     id="namedview12"
     pagecolor="#505050"
     bordercolor="#eeeeee"
     borderopacity="1"
     inkscape:showpageshadow="0"
     inkscape:pageopacity="0"
     inkscape:pagecheckerboard="0"
     inkscape:deskcolor="#505050"
     inkscape:zoom="4.7265306"
     inkscape:cx="156.1399"
     inkscape:cy="72.992228"
     inkscape:window-width="3440"
     inkscape:window-height="1360"
     inkscape:window-x="0"
     inkscape:window-y="0"
     inkscape:window-maximized="1"
     inkscape:current-layer="svg12" />
  <path
     d="m 14.280826,30.55484 -6.2993995,-10.9109 -4.8342,2.787 c -3.0096,1.7455 -4.0439,5.5955 -2.2985,8.6124 1.7383,3.0096 5.5883,4.044 8.6052,2.3057 z"
     fill="#ff9ced"
     id="path3" />
  <path
     d="m 35.413026,11.41944 c 0.1365,0.2299 0.3735,0.3592 0.6249,0.3592 0.1221,0 0.2442,-0.0287 0.3592,-0.0934 l 5.8038,-3.3544004 c 0.3448,-0.2011 0.4597,-0.6393 0.2658,-0.9841 -0.2012,-0.3448 -0.6393,-0.4597 -0.9841,-0.2657 l -5.8038,3.3544004 c -0.3448,0.2011 -0.4669,0.6393 -0.2658,0.984 z"
     fill="#ff02d1"
     id="path4" />
  <path
     d="m 44.521026,16.28234 -6.6945,0.2945 c -0.3951,0.0144 -0.704,0.352 -0.6896,0.747 0.0144,0.3879 0.3376,0.6896 0.7183,0.6896 h 0.0287 l 6.6945,-0.2945 c 0.3951,-0.0144 0.704,-0.352 0.6896,-0.747 -0.0144,-0.4023 -0.3448,-0.6968 -0.747,-0.6896 z"
     fill="#ff02d1"
     id="path5" />
  <path
     d="m 31.160726,6.9732396 c 0.1221,0.079 0.2514,0.1149 0.3879,0.1149 0.2371,0 0.4669,-0.1149 0.6034,-0.3304 l 3.6058,-5.653 c 0.2155,-0.33759996 0.1149,-0.77569996 -0.2155,-0.99119996 -0.3376,-0.2155 -0.7757,-0.1149 -0.9912,0.2227 l -3.6059,5.65289996 c -0.2154,0.3305 -0.1149,0.7686 0.2155,0.9841 z"
     fill="#ff02d1"
     id="path6" />
  <path
     d="m 14.029326,32.35774 -3.8644,2.2339 c -0.5170995,0.2945 -1.0629995,0.5172 -1.6232995,0.6896 0.6895,3.4334 2.4493995,6.5652 5.0279995,8.9356 0.9626,0.8835 2.3848,1.0271 3.5125,0.3735 0.0287,-0.0144 0.0503,-0.0287 0.079,-0.0431 1.6449,-0.9482 2.0184,-3.1749 0.747,-4.5827 -1.925,-2.1477 -3.2682,-4.7695 -3.8788,-7.6068 z"
     fill="#ff9ced"
     id="path7" />
  <path
     d="m 23.640226,17.87694 c -2.3417,-4.0583 -4.238,-8.0664004 -5.337,-11.2915004 -0.6249,-1.8461 -0.9625,-3.3114 -1.0056,-4.4463 -1.4725,1.9394 -2.2267,5.1286 -3.2323,7.8725004 -1.1852,3.7136 -2.8157,6.6586 -4.9633995,8.6914 l 6.5579995,11.3634 c 2.8373,-0.8476 6.2061,-0.783 10.013,0.0431 2.8948,0.4956 6.0624,1.4509 8.4831,1.1277 -4.2164,-2.6074 -9.7975,-12.1248 -10.5158,-13.3603 z"
     fill="#ff02d1"
     id="path8" />
  <path
     d="m 19.222726,0.55883964 c -1.3289,0.76859996 0.1293,5.88279996 3.3041,12.22540036 2.2914,-1.0775 5.064,-0.2442 6.3498,1.9897 1.2929,2.2338 0.6249,5.0567 -1.4582,6.5005 3.9363,5.9834 7.6786,9.8622 9.0146,9.0864 1.6234,-0.9409 -0.905,-8.3753 -5.6601,-16.6069 -4.7551,-8.2317004 -9.9197,-14.13610036 -11.5502,-13.19510036 z"
     fill="#ff9ced"
     id="path9" />
  <defs
     id="defs12">
    <filter
       id="filter0_b_83_208"
       x="-106.82"
       y="-106.82"
       width="624.64001"
       height="458.64001"
       filterUnits="userSpaceOnUse"
       color-interpolation-filters="sRGB">
      <feFlood
         flood-opacity="0"
         result="BackgroundImageFix"
         id="feFlood11" />
      <feGaussianBlur
         in="BackgroundImageFix"
         stdDeviation="53.41"
         id="feGaussianBlur11" />
      <feComposite
         in2="SourceAlpha"
         operator="in"
         result="effect1_backgroundBlur_83_208"
         id="feComposite11" />
      <feBlend
         mode="normal"
         in="SourceGraphic"
         in2="effect1_backgroundBlur_83_208"
         result="shape"
         id="feBlend11" />
    </filter>
    <linearGradient
       id="paint0_linear_83_208"
       x1="-46.641602"
       y1="9.9697999e-08"
       x2="450.638"
       y2="12.6855"
       gradientUnits="userSpaceOnUse">
      <stop
         stop-color="#FF02D1"
         id="stop11" />
      <stop
         offset="1"
         stop-color="#FF02D1"
         stop-opacity="0.2"
         id="stop12" />
    </linearGradient>
  </defs>
</svg>
