<?xml version="1.0" encoding="UTF-8" standalone="no"?>
<svg
   width="47.407398"
   height="47.407398"
   viewBox="0 0 47.407398 47.407398"
   fill="none"
   version="1.1"
   id="svg9"
   sodipodi:docname="home/compatible.svg"
   inkscape:version="1.4 (1:1.4+202410161351+e7c3feb100)"
   xmlns:inkscape="http://www.inkscape.org/namespaces/inkscape"
   xmlns:sodipodi="http://sodipodi.sourceforge.net/DTD/sodipodi-0.dtd"
   xmlns="http://www.w3.org/2000/svg"
   xmlns:svg="http://www.w3.org/2000/svg">
  <sodipodi:namedview
     id="namedview9"
     pagecolor="#505050"
     bordercolor="#eeeeee"
     borderopacity="1"
     inkscape:showpageshadow="0"
     inkscape:pageopacity="0"
     inkscape:pagecheckerboard="0"
     inkscape:deskcolor="#505050"
     inkscape:zoom="24.125"
     inkscape:cx="23.709845"
     inkscape:cy="23.709845"
     inkscape:window-width="3440"
     inkscape:window-height="1360"
     inkscape:window-x="0"
     inkscape:window-y="0"
     inkscape:window-maximized="1"
     inkscape:current-layer="svg9" />
  <g
     clip-path="url(#clip0_83_185)"
     id="g9"
     transform="translate(-0.296326,-0.296295)">
    <path
       d="M 36.5464,0.296295 26.7476,6.03555 36.5464,11.7748 46.3451,6.03555 Z"
       fill="#ff9ced"
       id="path1" />
    <path
       d="M 11.4537,0.296295 1.65491,6.03555 11.4537,11.7748 21.2525,6.03555 Z"
       fill="#ff9ced"
       id="path2" />
    <path
       d="m 12.8427,25.6583 9.7685,-5.7215 V 8.45825 l -9.7685,5.72145 z"
       fill="#ff9ced"
       id="path3" />
    <path
       d="M 24,22.3418 14.2012,28.0809 24,33.8203 33.7988,28.0809 Z"
       fill="#ff9ced"
       id="path4" />
    <path
       d="m 25.3889,19.9368 9.7685,5.7215 V 14.1797 L 25.3889,8.45825 Z"
       fill="#ff02d1"
       id="path5" />
    <path
       d="m 25.3889,47.7037 9.7685,-5.7216 V 30.5037 l -9.7685,5.7215 z"
       fill="#ff9ced"
       id="path6" />
    <path
       d="m 12.8427,41.9821 9.7685,5.7216 V 36.2252 l -9.7685,-5.7215 z"
       fill="#ff02d1"
       id="path7" />
    <path
       d="m 37.9352,14.1797 v 11.4786 l 9.7686,-5.7215 V 8.45825 Z"
       fill="#ff9ced"
       id="path8" />
    <path
       d="M 0.296326,19.9368 10.0648,25.6583 V 14.1797 L 0.296326,8.45825 Z"
       fill="#ff02d1"
       id="path9" />
  </g>
  <defs
     id="defs9">
    <clipPath
       id="clip0_83_185">
      <rect
         width="47.407398"
         height="47.407398"
         fill="#ffffff"
         transform="translate(0.296326,0.296295)"
         id="rect9"
         x="0"
         y="0" />
    </clipPath>
  </defs>
</svg>
