<?xml version="1.0" encoding="UTF-8" standalone="no"?>
<svg
   width="44.44445"
   height="32.586823"
   viewBox="0 0 44.44445 32.586823"
   fill="none"
   version="1.1"
   id="svg6"
   sodipodi:docname="home/orderbook.svg"
   inkscape:version="1.4 (1:1.4+202410161351+e7c3feb100)"
   xmlns:inkscape="http://www.inkscape.org/namespaces/inkscape"
   xmlns:sodipodi="http://sodipodi.sourceforge.net/DTD/sodipodi-0.dtd"
   xmlns="http://www.w3.org/2000/svg"
   xmlns:svg="http://www.w3.org/2000/svg">
  <sodipodi:namedview
     id="namedview6"
     pagecolor="#505050"
     bordercolor="#eeeeee"
     borderopacity="1"
     inkscape:showpageshadow="0"
     inkscape:pageopacity="0"
     inkscape:pagecheckerboard="0"
     inkscape:deskcolor="#505050"
     inkscape:zoom="9.4530612"
     inkscape:cx="75.531088"
     inkscape:cy="24.753886"
     inkscape:window-width="3440"
     inkscape:window-height="1360"
     inkscape:window-x="0"
     inkscape:window-y="0"
     inkscape:window-maximized="1"
     inkscape:current-layer="svg6" />
  <g
     id="g1">
    <path
       d="m 25.185228,17.771611 h -13.3334 v -4.4445 c -0.0014,-0.2925 -0.0894,-0.578 -0.2529,-0.8205 -0.1635,-0.2426 -0.3951,-0.4313 -0.6656,-0.5424 -0.2698,-0.1135 -0.5671,-0.1445 -0.8545,-0.0891 -0.2874,0.0554 -0.552,0.1946 -0.7603,0.4002 l -8.88890001,8.8889 c -0.1373,0.1384 -0.2459,0.3026 -0.3197,0.4831 -0.0737,0.1805 -0.1111,0.3737 -0.109900002081,0.5687 -0.0011999979,0.195 0.03620000208,0.3883 0.109900002081,0.5688 0.0738,0.1805 0.1824,0.3446 0.3197,0.4831 l 8.88890001,8.8889 c 0.1384,0.1373 0.3026,0.2459 0.4831,0.3196 0.1805,0.0737 0.3738,0.1111 0.5687,0.11 0.1944,0.005 0.3872,-0.0356 0.563,-0.1185 0.2705,-0.1112 0.5021,-0.2999 0.6656,-0.5425 0.1635,-0.2425 0.2515,-0.528 0.2529,-0.8205 v -4.4444 h 13.3334 c 0.3929,0 0.7697,-0.1561 1.0475,-0.434 0.2779,-0.2778 0.4339,-0.6546 0.4339,-1.0475 v -5.926 c 0,-0.3929 -0.156,-0.7697 -0.4339,-1.0475 -0.2778,-0.2778 -0.6546,-0.4339 -1.0475,-0.4339 z"
       id="path1"
       style="fill:#ff02d1;fill-opacity:1" />
    <path
       d="m 44.444428,10.364211 c 0.0011,0.1949 -0.0362,0.3882 -0.11,0.5687 -0.0737,0.1805 -0.1823,0.3447 -0.3196,0.4831 l -8.8889,8.8889 c -0.1384,0.1373 -0.3026,0.2459 -0.4831,0.3197 -0.1805,0.0737 -0.3738,0.1111 -0.5688,0.1099 -0.1926,0.0024 -0.3838,-0.0328 -0.5629,-0.1037 -0.2729,-0.1121 -0.5061,-0.3031 -0.6697,-0.5486 -0.1637,-0.2454 -0.2503,-0.5341 -0.2488,-0.8292 v -4.4444 h -13.3334 c -0.3929,0 -0.7697,-0.1561 -1.0475,-0.4339 -0.2779,-0.2778 -0.434,-0.6547 -0.434,-1.0476 V 7.4012113 c 0,-0.3929 0.1561,-0.7697 0.434,-1.0476 0.2778,-0.2778 0.6546,-0.4339 1.0475,-0.4339 h 13.3334 v -4.4444 c 0.0012,-0.293 0.0893,-0.57910001 0.2531,-0.82200001 0.1638,-0.243 0.3959,-0.4319 0.6671,-0.5429 0.2711,-0.11099999547 0.5691,-0.1391 0.8563,-0.0807 0.2871,0.0583 0.5505,0.2005 0.7568,0.4085 l 8.8889,8.88890001 c 0.2737,0.276 0.428,0.6484 0.4296,1.0370997 z"
       id="path3"
       style="fill:#ff9ced;fill-opacity:1" />
  </g>
  <defs
     id="defs6">
    <filter
       id="filter0_b_83_198"
       x="-106.82"
       y="-106.82"
       width="624.64001"
       height="458.64001"
       filterUnits="userSpaceOnUse"
       color-interpolation-filters="sRGB">
      <feFlood
         flood-opacity="0"
         result="BackgroundImageFix"
         id="feFlood5" />
      <feGaussianBlur
         in="BackgroundImageFix"
         stdDeviation="53.41"
         id="feGaussianBlur5" />
      <feComposite
         in2="SourceAlpha"
         operator="in"
         result="effect1_backgroundBlur_83_198"
         id="feComposite5" />
      <feBlend
         mode="normal"
         in="SourceGraphic"
         in2="effect1_backgroundBlur_83_198"
         result="shape"
         id="feBlend5" />
    </filter>
    <linearGradient
       id="paint0_linear_83_198"
       x1="-46.641602"
       y1="9.9697999e-08"
       x2="450.638"
       y2="12.6855"
       gradientUnits="userSpaceOnUse">
      <stop
         stop-color="#FF02D1"
         id="stop5" />
      <stop
         offset="1"
         stop-color="#FF02D1"
         stop-opacity="0.2"
         id="stop6" />
    </linearGradient>
  </defs>
</svg>
