<?xml version="1.0" encoding="UTF-8" standalone="no"?>
<svg
   width="1706.2751"
   height="206.86676"
   viewBox="0 0 1706.2751 206.86676"
   fill="none"
   version="1.1"
   id="svg10"
   sodipodi:docname="home/Roadmap.svg"
   inkscape:version="1.3.2 (1:1.3.2+202311252150+091e20ef0f)"
   xmlns:inkscape="http://www.inkscape.org/namespaces/inkscape"
   xmlns:sodipodi="http://sodipodi.sourceforge.net/DTD/sodipodi-0.dtd"
   xmlns:xlink="http://www.w3.org/1999/xlink"
   xmlns="http://www.w3.org/2000/svg"
   xmlns:svg="http://www.w3.org/2000/svg">
  <sodipodi:namedview
     id="namedview10"
     pagecolor="#505050"
     bordercolor="#eeeeee"
     borderopacity="1"
     inkscape:showpageshadow="0"
     inkscape:pageopacity="0"
     inkscape:pagecheckerboard="0"
     inkscape:deskcolor="#505050"
     inkscape:zoom="0.57395833"
     inkscape:cx="153.32123"
     inkscape:cy="-70.562613"
     inkscape:window-width="2560"
     inkscape:window-height="1366"
     inkscape:window-x="0"
     inkscape:window-y="0"
     inkscape:window-maximized="1"
     inkscape:current-layer="svg10" />
  <path
     d="M 251.92,0.08922469 C 152.708,-3.1590753 0,83.364865 0,83.364865 v 10.429 c 0,0 119.23824,-51.69539 251.31761,-49.533804 C 383.39698,46.421647 445.49373,147.96569 558,149.08923 748.30785,150.98974 794.236,41.585725 958.096,49.020225 c 93.874,4.2593 145.094,66.110005 234.394,93.855005 99.16,30.811 207.7911,32.93145 249.41,30.811 111.3045,-5.67086 264.3751,-79.892365 264.3751,-79.892365 v -10.429 c -62.7819,30.458055 -142.2818,56.675795 -264.3751,59.724365 -84.1207,2.10043 -162.27,3.187 -249.41,-39 C 1107.42,62.910524 1053.21,14.633425 958.096,6.0892247 795.973,-8.4741653 726.351,129.16623 564,117.08923 440.248,107.88323 375.979,4.1511247 251.92,0.08922469 Z"
     fill="url(#paint0_linear_138_3)"
     fill-opacity="0.7"
     id="path1"
     style="fill:url(#linearGradient20)"
     clip-path="none"
     sodipodi:nodetypes="ccczsscsccscccc" />
  <path
     d="M 251.92,37.798864 C 152.708,35.213464 0,91.483865 0,91.483865 v 19.326005 c 0,0 152.28,-38.773807 251.92,-35.985006 125.612,3.515 176.268,99.090366 301.502,107.232366 163.44,10.626 240.814,-104.359505 404.674,-98.442005 93.874,3.39 150.104,67.652005 239.404,89.734005 99.17,24.522 138.9356,13.89556 251,8.708 146.3321,-6.77385 189.7152,-52.39196 257.7751,-71.24736 V 91.483865 c -50.3978,18.631595 -112.4434,51.142905 -203.7751,59.147365 -64.2214,5.62846 -187,4.544 -294.5,-16.659 C 1115.64,115.75523 1053.21,50.389525 958.096,43.589225 795.973,31.998225 717.351,151.15623 555,141.54423 431.248,134.21823 375.979,41.031764 251.92,37.798864 Z"
     fill="url(#paint1_linear_138_3)"
     fill-opacity="0.5"
     id="path2"
     style="fill:url(#linearGradient21)"
     clip-path="none"
     sodipodi:nodetypes="scccsscsccssccs" />
  <path
     d="M 252.92,64.933364 C 153.708,62.175464 0,103.29887 0,103.29887 v 20 c 0,0 153.28,-41.301005 252.92,-38.326005 125.612,3.749 176.268,105.114365 301.502,113.799365 163.44,11.334 240.814,-111.321005 404.674,-105.009005 93.874,3.616 150.104,72.164005 239.404,95.719005 99.17,26.159 153.3895,17.10269 251,9.29 129.7353,-10.38393 185.0762,-55.58507 256.7751,-75.47336 v -20 c -70.2432,20.63721 -113.2563,58.98968 -200.2751,69.43536 -63.1254,7.57753 -222.5,16.748 -297,0 C 1116.89,152.02723 1054.21,84.138225 959.096,76.883825 796.973,64.519624 716.773,189.30723 554.422,179.05323 430.67,171.23823 376.979,68.381864 252.92,64.933364 Z"
     fill="url(#paint2_linear_138_3)"
     fill-opacity="0.5"
     id="path3"
     style="fill:url(#linearGradient22)"
     clip-path="none"
     sodipodi:nodetypes="cccccscsccssccc" />
  <defs
     id="defs10">
    <linearGradient
       id="linearGradient46"
       x1="-58"
       y1="99.1325"
       x2="1462.52"
       y2="428.789"
       gradientUnits="userSpaceOnUse">
      <stop
         stop-color="#8EEAFC"
         id="stop45" />
      <stop
         stop-color="#8EEAFC"
         id="stop47"
         style="stop-color:#ff02d1;stop-opacity:1;"
         offset="0.5" />
      <stop
         offset="1"
         stop-color="#FF02D1"
         id="stop46"
         style="stop-color:#8eeafc;stop-opacity:1;" />
    </linearGradient>
    <linearGradient
       id="linearGradient43"
       x1="-57"
       y1="109.155"
       x2="1471.84"
       y2="419.888"
       gradientUnits="userSpaceOnUse">
      <stop
         stop-color="#8EEAFC"
         id="stop42" />
      <stop
         stop-color="#8EEAFC"
         id="stop44"
         style="stop-color:#ff02d1;stop-opacity:1;"
         offset="0.5" />
      <stop
         offset="1"
         stop-color="#FF02D1"
         id="stop43"
         style="stop-color:#8eeafc;stop-opacity:1;" />
    </linearGradient>
    <linearGradient
       id="linearGradient40"
       x1="-58"
       y1="15.9844"
       x2="1378.6"
       y2="233.881"
       gradientUnits="userSpaceOnUse">
      <stop
         stop-color="#FF02D1"
         id="stop39" />
      <stop
         stop-color="#FF02D1"
         id="stop41"
         style="stop-color:#8eeafc;stop-opacity:1;"
         offset="0.59656382" />
      <stop
         offset="1"
         stop-color="#8EEAFC"
         id="stop40"
         style="stop-color:#ff02d1;stop-opacity:1;" />
    </linearGradient>
    <linearGradient
       id="paint0_linear_138_3"
       x1="-58"
       y1="15.9844"
       x2="1378.6"
       y2="233.881"
       gradientUnits="userSpaceOnUse">
      <stop
         stop-color="#FF02D1"
         id="stop4" />
      <stop
         offset="1"
         stop-color="#8EEAFC"
         id="stop5" />
    </linearGradient>
    <linearGradient
       id="paint1_linear_138_3"
       x1="-58"
       y1="99.1325"
       x2="1462.52"
       y2="428.789"
       gradientUnits="userSpaceOnUse">
      <stop
         stop-color="#8EEAFC"
         id="stop6" />
      <stop
         offset="1"
         stop-color="#FF02D1"
         id="stop7" />
    </linearGradient>
    <linearGradient
       id="paint2_linear_138_3"
       x1="-57"
       y1="109.155"
       x2="1471.84"
       y2="419.888"
       gradientUnits="userSpaceOnUse">
      <stop
         stop-color="#8EEAFC"
         id="stop8" />
      <stop
         offset="1"
         stop-color="#FF02D1"
         id="stop9" />
    </linearGradient>
    <clipPath
       id="clip1_138_3">
      <rect
         width="1440"
         height="220"
         fill="#ffffff"
         id="rect10"
         x="0"
         y="0" />
    </clipPath>
    <clipPath
       id="clip0_138_3-3">
      <rect
         width="1440"
         height="220"
         fill="#ffffff"
         id="rect9-6"
         x="0"
         y="0" />
    </clipPath>
    <clipPath
       id="clip1_138_3-7">
      <rect
         width="1440"
         height="220"
         fill="#ffffff"
         id="rect10-5"
         x="0"
         y="0" />
    </clipPath>
    <linearGradient
       inkscape:collect="always"
       xlink:href="#linearGradient40"
       id="linearGradient20"
       gradientUnits="userSpaceOnUse"
       x1="0"
       y1="17.418821"
       x2="1706.2751"
       y2="183.20955"
       spreadMethod="pad"
       gradientTransform="translate(0,-17.410775)" />
    <linearGradient
       inkscape:collect="always"
       xlink:href="#linearGradient46"
       id="linearGradient21"
       gradientUnits="userSpaceOnUse"
       x1="0"
       y1="63.913563"
       x2="1706.2751"
       y2="206.26654"
       gradientTransform="translate(0,-17.410775)" />
    <linearGradient
       inkscape:collect="always"
       xlink:href="#linearGradient43"
       id="linearGradient22"
       gradientUnits="userSpaceOnUse"
       x1="0"
       y1="82.211372"
       x2="1471.84"
       y2="419.888"
       gradientTransform="translate(0,-17.410775)" />
    <clipPath
       clipPathUnits="userSpaceOnUse"
       id="clipPath24">
      <g
         id="g26">
        <g
           id="g25">
          <rect
             width="1440"
             height="220"
             fill="#ffffff"
             id="rect24"
             x="0"
             y="0" />
        </g>
      </g>
    </clipPath>
    <clipPath
       clipPathUnits="userSpaceOnUse"
       id="clipPath26">
      <g
         id="g28">
        <g
           id="g27">
          <rect
             width="1440"
             height="220"
             fill="#ffffff"
             id="rect26"
             x="0"
             y="0" />
        </g>
      </g>
    </clipPath>
    <clipPath
       clipPathUnits="userSpaceOnUse"
       id="clipPath28">
      <g
         id="g30">
        <g
           id="g29">
          <rect
             width="1440"
             height="220"
             fill="#ffffff"
             id="rect28"
             x="0"
             y="0" />
        </g>
      </g>
    </clipPath>
  </defs>
</svg>
