<?xml version="1.0" encoding="UTF-8" standalone="no"?>
<svg
   width="48"
   height="48"
   viewBox="0 0 48 48"
   fill="none"
   version="1.1"
   id="svg3"
   sodipodi:docname="home/x.svg"
   inkscape:version="1.4 (1:1.4+202410161351+e7c3feb100)"
   xmlns:inkscape="http://www.inkscape.org/namespaces/inkscape"
   xmlns:sodipodi="http://sodipodi.sourceforge.net/DTD/sodipodi-0.dtd"
   xmlns="http://www.w3.org/2000/svg"
   xmlns:svg="http://www.w3.org/2000/svg">
  <defs
     id="defs3" />
  <sodipodi:namedview
     id="namedview3"
     pagecolor="#505050"
     bordercolor="#eeeeee"
     borderopacity="1"
     inkscape:showpageshadow="0"
     inkscape:pageopacity="0"
     inkscape:pagecheckerboard="0"
     inkscape:deskcolor="#505050"
     inkscape:zoom="13.647161"
     inkscape:cx="34.292847"
     inkscape:cy="20.663639"
     inkscape:window-width="3440"
     inkscape:window-height="1360"
     inkscape:window-x="0"
     inkscape:window-y="0"
     inkscape:window-maximized="1"
     inkscape:current-layer="svg3" />
  <rect
     width="48"
     height="48"
     rx="11.8519"
     fill="#ff02d1"
     id="rect1"
     x="0"
     y="0"
     ry="11.8519" />
  <g
     id="g3"
     transform="translate(-12.44487,4.2889557)">
    <path
       d="m 48.60257,31.078445 -9.6486,-13.701 -1.091,-1.5494 -6.90421,-9.7989502 -0.57213,-0.812652 h -8.479993 l 2.067873,2.937812 9.17826,13.0327902 1.0909,1.5472 7.3746,10.4717 0.5721,0.8103 h 8.4823 z m -5.4062,1.0613 -7.6606,-10.8792 -1.0909,-1.5495 -8.88974,-12.6206002 h 3.82305 l 7.19029,10.2088002 1.0909,1.5495 9.3625,13.2935 h -3.8255 z"
       fill="#ffffff"
       id="path1" />
    <path
       d="m 34.44497,19.713545 1.0909,1.5494 -1.2921,1.4713 -9.92488,11.282 h -2.446066 l 11.280046,-12.829 z"
       fill="#ffffff"
       id="path2" />
    <path
       d="m 49.65007,5.2164428 -10.6958,12.1610022 -1.2946,1.4713 -1.0909,-1.5495 1.2945,-1.4712 7.2461,-8.2423902 2.0947,-2.369212 z"
       fill="#ffffff"
       id="path3" />
  </g>
</svg>
