<?xml version="1.0" encoding="UTF-8" standalone="no"?>
<svg
   width="69.292mm"
   height="69.292mm"
   viewBox="0 0 69.292 69.292"
   version="1.1"
   id="svg1"
   xmlns="http://www.w3.org/2000/svg"
   xmlns:svg="http://www.w3.org/2000/svg">
  <defs
     id="defs1" />
  <g
     id="layer1"
     transform="translate(-8.5186701,-84.692246)">
    <path
       id="path2"
       style="opacity:1;fill:#ff9ced;fill-opacity:1;stroke:none;stroke-width:2.64583;stroke-dasharray:none;stroke-opacity:1"
       d="m 68.896526,103.91516 c 2.79294,4.65974 4.26814,9.99043 4.26814,15.42308 v 0 c 0,16.56854 -13.43146,30 -30,30 -16.56854,0 -29.999995,-13.43146 -29.999995,-30 0,-5.44268 1.480649,-10.78283 4.283341,-15.44841 0,0 3.762685,-7.864954 15.593994,-7.864954 11.83131,0 14.74877,9.741184 23.21363,10.654694 4.28831,0.46278 12.64089,-2.76441 12.64089,-2.76441 z" />
    <circle
       style="fill:none;stroke:#ed32bf;stroke-width:5.29167;stroke-dasharray:none;stroke-opacity:1"
       id="circle2"
       cx="43.164669"
       cy="119.33825"
       r="30" />
    <path
       d="m 27.956404,130.673 v -22.6695 h 4.79425 v 18.70075 h 9.2075 V 130.673 Z M 53.13417,108.0035 q 4.3815,0 6.38175,1.905 2.032,1.87325 2.032,5.17525 0,1.9685 -0.8255,3.71475 -0.8255,1.7145 -2.76225,2.76225 -1.905,1.04775 -5.207,1.04775 h -2.06375 v 8.0645 h -4.79425 v -22.6695 z m -0.254,3.937 h -2.19075 v 6.731 h 1.5875 q 2.032,0 3.20675,-0.79375 1.2065,-0.8255 1.2065,-2.63525 0,-3.302 -3.81,-3.302 z"
       id="text2"
       style="font-weight:bold;font-size:31.75px;fill:#ed32bf;stroke-width:2.64583"
       aria-label="LP" />
  </g>
</svg>
