<?xml version="1.0" encoding="UTF-8" standalone="no"?>

<svg
   viewBox="0 0 24 24"
   version="1.1"
   id="svg1"
   xmlns="http://www.w3.org/2000/svg"
   xmlns:svg="http://www.w3.org/2000/svg">
  <path
     fill="#ffffff88"
     d="m 15.580513,12.726026 2.5,-4.3301276 0.866025,0.5 c 0.476314,0.275 1.091025,0.1102885 1.366025,-0.3660254 0.275,-0.476314 0.110289,-1.0910254 -0.366025,-1.3660254 L 11.286284,2.1638475 c -0.476314,-0.275 -1.091025,-0.1102885 -1.3660247,0.3660255 -0.275,0.4763139 -0.110289,1.0910254 0.3660247,1.3660254 l 0.866025,0.5 -2.4999997,4.330127 C 7.8223097,10.163628 5.9918356,10.654102 4.5542335,9.8241016 l -1,1.7320514 5.1701718,2.985 -3.5000002,6.062178 0.3660254,1.366025 1.3660254,-0.366025 3.5000001,-6.062178 5.222133,3.015 1,-1.732051 c -1.437602,-0.83 -1.928076,-2.660474 -1.098076,-4.098076"
     id="path1" />
</svg>
